# AST/ASF file generated using VICON BodyLanguage
# -----------------------------------------------
:version 1.10
:name VICON
:units
  mass 1.0
  length 0.45
  angle deg
:documentation
   .ast/.asf automatically generated from VICON data using
   VICON BodyBuilder and BodyLanguage model FoxedUp or BRILLIANT.MOD
:root
   order TX TY TZ RX RY RZ
   axis XYZ
   position 0 0 0  
   orientation 0 0 0 
:bonedata
  begin
     id 1 
     name lhipjoint
     direction 0.521452 -0.77106 0.36545 
     length 2.0933 
     axis 0 0 0  XYZ
  end
  begin
     id 2 
     name lfemur
     direction 0.34202 -0.939693 0  
     length 6.83441  
     axis 0 0 20  XYZ
    dof rx ry rz
    limits (-160.0 20.0)
           (-70.0 70.0)
           (-60.0 70.0)
  end
  begin
     id 3 
     name ltibia
     direction 0.34202 -0.939693 0   
     length 7.28749   
     axis 0 0 20   XYZ
    dof rx
    limits (-10.0 170.0)
  end
  begin
     id 4 
     name lfoot
     direction 0.100608 -0.276418 0.955757   
     length 1.52195   
     axis -90 7.62852e-016 20   XYZ
    dof rx rz
    limits (-45.0 90.0)
           (-70.0 20.0)
  end
  begin
     id 5 
     name ltoes
     direction 1.53558e-011 -4.21907e-011 1   
     length 0.770459   
     axis -90 7.62852e-016 20   XYZ
    dof rx
    limits (-90.0 20.0)
  end
  begin
     id 6 
     name rhipjoint
     direction -0.488071 -0.788702 0.373812   
     length 2.04648  
     axis 0 0 0  XYZ 
  end
  begin
     id 7 
     name rfemur
     direction -0.34202 -0.939693 0   
     length 6.92583   
     axis 0 0 -20   XYZ
    dof rx ry rz
    limits (-160.0 20.0)
           (-70.0 70.0)
           (-70.0 60.0)
  end
  begin
     id 8 
     name rtibia
     direction -0.34202 -0.939693 0   
     length 7.41043   
     axis 0 0 -20   XYZ
    dof rx
    limits (-10.0 170.0)
 end
 begin
     id 9 
     name rfoot
     direction -0.0784433 -0.215521 0.973343   
     length 1.67708  
     axis -90 -7.62852e-016 -20   XYZ
    dof rx rz
    limits (-45.0 90.0)
           (-20.0 70.0)
  end
  begin
     id 10 
     name rtoes
     direction -1.53551e-011 -4.21842e-011 1   
     length 0.849787   
     axis -90 -7.62852e-016 -20   XYZ
    dof rx
    limits (-90.0 20.0)
  end
  begin
     id 11 
     name lowerback
     direction -0.0122332 0.997575 -0.0685192   
     length 1.98724   
     axis 0 0 0   XYZ
    dof rx ry rz
    limits (-20.0 45.0)
           (-30.0 30.0)
           (-30.0 30.0)
  end
  begin
     id 12 
     name upperback
     direction 0.0182347 0.999724 -0.0148421   
     length 1.99029   
     axis 0 0 0   XYZ
    dof rx ry rz
    limits (-20.0 45.0)
           (-30.0 30.0)
           (-30.0 30.0)
  end
  begin
     id 13 
     name thorax
     direction 0.0242908 0.99956 0.0170184   
     length 1.99573   
     axis 0 0 0   XYZ
    dof rx ry rz
    limits (-20.0 45.0)
           (-30.0 30.0)
           (-30.0 30.0)
  end
  begin
     id 14 
     name lowerneck
     direction 0.0654488 0.985533 0.156338   
     length 1.4285   
     axis 0 0 0   XYZ
    dof rx ry rz
    limits (-20.0 45.0)
           (-30.0 30.0)
           (-30.0 30.0)
  end
  begin
     id 15 
     name upperneck
     direction -0.02953 0.998556 -0.0448842   
     length 1.44709   
     axis 0 0 0   XYZ
    dof rx ry rz
    limits (-20.0 45.0)
           (-30.0 30.0)
           (-30.0 30.0)
  end
  begin
     id 16
     name head
     direction -0.0155588 0.999386 -0.0314063  
     length 1.44689  
     axis 0 0 0   XYZ
    dof rx ry rz
    limits (-20.0 45.0)
           (-30.0 30.0)
           (-30.0 30.0)
  end
  begin
     id 17 
     name lclavicle
     direction 0.968229 0.236071 -0.0824755  
     length 3.60593  
     axis 0 0 0   XYZ
    dof ry rz
    limits (-20.0 10.0)
           (0.0 20.0)
  end
  begin
     id 18 
     name lhumerus
     direction 1 -4.48968e-011 7.8138e-029   
     length 5.06035   
     axis 180 -30 -90   XYZ
    dof rx ry rz
    limits (-60.0 90.0)
           (-90.0 90.0)
           (-90.0 90.0)
  end
  begin
     id 19
     name lradius
     direction 1 -4.48967e-011 9.02887e-028   
     length 3.1478   
     axis 180 -30 -90   XYZ
    dof rx
    limits (-10.0 170.0)
  end
  begin
     id 20
     name lwrist
     direction 1 -4.48961e-011 7.20928e-028   
     length 1.5739   
     axis -5.52449e-016 90 90   XYZ
    dof ry
    limits (-180.0 0.0)
 end
  begin
     id 21 
     name lhand
     direction 1 -4.48972e-011 1.44186e-027   
     length 0.606747   
     axis -9.20027e-016 90 90   XYZ
    dof rx rz
    limits (-90.0 90.0)
           (-45.0 45.0)
  end
  begin
     id 22 
     name lfingers
     direction 1 -4.48943e-011 2.88371e-027   
     length 0.489175   
     axis -1.84005e-015 90 90   XYZ
    dof rx
    limits (0.0 90.0)
  end
  begin
     id 23
     name lthumb
     direction 0.707107 -6.34917e-011 0.707107   
     length 0.70236   
     axis -90 45 2.85299e-015   XYZ
    dof rx rz
    limits (-45.0 45.0)
           (-45.0 45.0)
  end
  begin
     id 24 
     name rclavicle
     direction -0.978165 0.207816 0.0022268   
     length 3.35425  
     axis 0 0 0   XYZ 
    dof ry rz
    limits (-10.0 20.0)
           (-20.0 0.0)
  end
  begin
     id 25 
     name rhumerus
     direction -1 -4.48964e-011 -4.02159e-027  
     length 5.12273   
     axis 180 30 90   XYZ
    dof rx ry rz
    limits (-90.0 60.0)
           (-90.0 90.0)
           (-90.0 90.0)
  end
  begin
     id 26 
     name rradius
     direction -1 -4.48966e-011 1.62746e-027   
     length 3.422   
     axis 180 30 90   XYZ
    dof rx
    limits (-10.0 170.0)
  end
  begin
     id 27 
     name rwrist
     direction -1 -4.4896e-011 7.20928e-028   
     length 1.711   
     axis -5.52449e-016 -90 -90   XYZ
    dof ry
    limits (-180.0 0.0)
  end
  begin
     id 28
     name rhand
     direction -1 -4.48979e-011 1.44186e-027   
     length 0.704599   
     axis -9.20027e-016 -90 -90   XYZ
    dof rx rz
    limits (-90.0 90.0)
           (-45.0 45.0)
  end
  begin
     id 29
     name rfingers
     direction -1 -4.48962e-011 2.88371e-027   
     length 0.568066   
     axis -1.84005e-015 -90 -90   XYZ
    dof rx
    limits (0.0 90.0)
  end
  begin
     id 30
     name rthumb
     direction -0.707107 -6.34949e-011 0.707107   
     length 0.815633   
     axis -90 -45 -2.85299e-015   XYZ
    dof rx rz
    limits (-45.0 45.0)
           (-45.0 45.0)
  end
:hierarchy
  begin
    root lhipjoint rhipjoint lowerback
    lhipjoint lfemur
    lfemur ltibia
    ltibia lfoot
    lfoot ltoes
    rhipjoint rfemur
    rfemur rtibia
    rtibia rfoot
    rfoot rtoes
    lowerback upperback
    upperback thorax
    thorax lowerneck lclavicle rclavicle
    lowerneck upperneck
    upperneck head
    lclavicle lhumerus
    lhumerus lradius
    lradius lwrist
    lwrist lhand lthumb
    lhand lfingers
    rclavicle rhumerus
    rhumerus rradius
    rradius rwrist
    rwrist rhand rthumb
    rhand rfingers
  end

#!OML:ASF E:\id_vita\Project 1\Capture day 1\Session 1\Male1.ASF
:FULLY-SPECIFIED
:DEGREES
29
root 6.39141 30.1375 1.32983 20.5369 81.8401 12.4139
lowerback -2.04719 -1.72752 -6.66084
upperback 2.1765 -2.05604 0.287543
thorax 3.65663 -1.19462 3.92173
lowerneck -12.8326 1.28191 -0.929383
upperneck 8.71624 1.34538 4.9182
head 4.66859 0.958346 1.78165
rclavicle 3.24516e-014 -1.0138e-014
rhumerus -37.6023 -19.2144 -74.3173
rradius 26.3225
rwrist 12.2846
rhand -15.8108 31.5703
rfingers 7.12502
rthumb 10.3826 1.84664
lclavicle 3.24516e-014 -1.0138e-014
lhumerus -27.2248 27.2831 73.7311
lradius 12.5393
lwrist -17.0813
lhand -13.4357 43.4222
lfingers 7.12502
lthumb 12.6732 73.0177
rfemur -12.8028 1.606 16.724
rtibia 25.6391
rfoot -17.6194 -11.1128
rtoes -13.2728
lfemur -12.7319 -1.95138 -21.2342
ltibia 26.686
lfoot -25.9726 8.50449
ltoes 30.0943
30
root 6.39472 30.1369 1.33521 20.0541 82.0232 11.9822
lowerback -1.93507 -1.71362 -6.52601
upperback 2.20411 -2.05023 0.307107
thorax 3.61626 -1.18794 3.86953
lowerneck -12.7827 1.23774 -0.980363
upperneck 8.76516 1.28694 4.97857
head 4.67664 0.932037 1.80428
rclavicle 2.78299e-014 -5.96354e-015
rhumerus -37.8552 -18.559 -74.5406
rradius 26.5392
rwrist 11.6225
rhand -15.7989 31.4145
rfingers 7.12502
rthumb 10.3942 1.69143
lclavicle 2.78299e-014 -5.96354e-015
lhumerus -27.4954 26.7827 73.712
lradius 12.6939
lwrist -16.7286
lhand -13.3595 44.0642
lfingers 7.12502
lthumb 12.7466 73.6552
rfemur -12.6973 1.67087 16.8818
rtibia 25.6177
rfoot -17.4719 -11.3817
rtoes -13.2619
lfemur -12.6578 -2.24002 -21.0918
ltibia 26.6902
lfoot -25.9819 8.59845
ltoes 30.3146
31
root 6.39746 30.1363 1.3383 18.8873 82.0881 10.7859
lowerback -1.91088 -1.70358 -6.33369
upperback 2.20535 -2.04849 0.380366
thorax 3.5983 -1.18307 3.83863
lowerneck -12.7388 1.26013 -0.919425
upperneck 8.79948 1.30852 4.95079
head 4.68 0.942875 1.78725
rclavicle 2.24627e-014 0
rhumerus -38.0884 -18.2639 -74.4892
rradius 26.5112
rwrist 11.5005
rhand -15.7625 31.3865
rfingers 7.12502
rthumb 10.4292 1.6652
lclavicle 2.24627e-014 0
lhumerus -28.9721 21.9973 74.9883
lradius 14.8304
lwrist -11.7924
lhand -12.9438 44.6132
lfingers 7.12502
lthumb 13.1473 74.1787
rfemur -12.6921 1.74225 17.0906
rtibia 25.5932
rfoot -17.4561 -11.4529
rtoes -12.9003
lfemur -12.6537 -2.56375 -20.8856
ltibia 26.6988
lfoot -26.0405 8.80606
ltoes 30.7767
32
root 6.40031 30.1361 1.33915 19.2118 82.0815 11.0512
lowerback -1.93317 -1.62135 -6.25365
upperback 2.20595 -1.93744 0.309127
thorax 3.59275 -1.12432 3.72553
lowerneck -12.7167 1.21589 -0.919435
upperneck 8.81139 1.24102 5.02593
head 4.68186 0.91494 1.80549
rclavicle 2.51463e-014 -1.39149e-015
rhumerus -38.3133 -18.8271 -74.1357
rradius 26.0807
rwrist 11.9266
rhand -15.6995 31.4869
rfingers 7.12502
rthumb 10.49 1.76859
lclavicle 2.51463e-014 -1.39149e-015
lhumerus -28.1783 24.6015 73.9639
lradius 13.3299
lwrist -14.8597
lhand -12.625 44.6447
lfingers 7.12502
lthumb 13.4547 74.1902
rfemur -12.7428 1.64363 17.0483
rtibia 25.577
rfoot -17.5387 -11.3455
rtoes -12.4027
lfemur -12.7029 -2.71337 -20.9257
ltibia 26.7053
lfoot -26.0741 8.91207
ltoes 31.0554
33
root 6.40065 30.1383 1.34181 20.0823 82.1336 11.8574
lowerback -1.93074 -1.6152 -6.33045
upperback 2.19297 -1.92633 0.289965
thorax 3.57898 -1.11968 3.74962
lowerneck -12.6642 1.19971 -0.900422
upperneck 8.84012 1.21199 5.05789
head 4.68303 0.903417 1.80992
rclavicle -1.11319e-014 1.98785e-014
rhumerus -38.4107 -19.3474 -73.7292
rradius 25.5999
rwrist 12.5677
rhand -15.5458 31.5558
rfingers 7.12502
rthumb 10.6383 1.8451
lclavicle -1.11319e-014 1.98785e-014
lhumerus -28.5937 24.402 73.816
lradius 13.4979
lwrist -14.7764
lhand -12.4594 44.677
lfingers 7.12502
lthumb 13.6143 74.2118
rfemur -12.8181 1.5313 16.96
rtibia 25.5827
rfoot -17.5855 -11.3186
rtoes -12.1257
lfemur -12.781 -2.75539 -21.02
ltibia 26.7005
lfoot -26.0257 8.94831
ltoes 30.9141
34
root 6.4001 30.1406 1.34632 20.7997 82.2251 12.4889
lowerback -1.96775 -1.632 -6.40226
upperback 2.15497 -1.9442 0.266484
thorax 3.56436 -1.12873 3.76407
lowerneck -12.5888 1.18855 -0.868159
upperneck 8.86063 1.18791 5.0904
head 4.67786 0.894482 1.81241
rclavicle -2.10215e-014 5.96354e-015
rhumerus -38.6206 -19.4482 -73.565
rradius 25.3913
rwrist 12.8514
rhand -15.4115 31.4866
rfingers 7.12502
rthumb 10.7678 1.78262
lclavicle -2.10215e-014 5.96354e-015
lhumerus -29.0439 24.3724 73.5382
lradius 13.6326
lwrist -14.738
lhand -12.465 44.0935
lfingers 7.12502
lthumb 13.6089 73.6287
rfemur -12.9179 1.49364 16.9196
rtibia 25.602
rfoot -17.5671 -11.4306
rtoes -12.3799
lfemur -12.891 -2.70773 -21.0644
ltibia 26.6792
lfoot -25.933 8.88859
ltoes 30.6107
35
root 6.40211 30.1408 1.35126 21.241 82.3188 12.8665
lowerback -2.04298 -1.65035 -6.44498
upperback 2.13408 -1.96195 0.249017
thorax 3.58829 -1.13864 3.76712
lowerneck -12.5189 1.17862 -0.835176
upperneck 8.88225 1.16546 5.12189
head 4.67387 0.886383 1.81467
rclavicle 2.99668e-014 1.78906e-015
rhumerus -38.8881 -19.2408 -73.5547
rradius 25.2812
rwrist 12.8565
rhand -15.3356 31.4389
rfingers 7.12502
rthumb 10.841 1.73868
lclavicle 2.99668e-014 1.78906e-015
lhumerus -29.5132 24.1631 73.3441
lradius 13.8634
lwrist -14.5199
lhand -12.4946 43.6943
lfingers 7.12502
lthumb 13.5803 73.2314
rfemur -12.9592 1.50288 16.9174
rtibia 25.6149
rfoot -17.518 -11.5699
rtoes -12.4266
lfemur -12.9679 -2.55142 -21.0655
ltibia 26.6524
lfoot -25.8402 8.67521
ltoes 30.5003
36
root 6.40663 30.1398 1.35741 21.3429 82.4459 13.0065
lowerback -2.06221 -1.61031 -6.38417
upperback 2.17577 -1.90479 0.177623
thorax 3.63107 -1.10945 3.66097
lowerneck -12.4939 1.11253 -0.885794
upperneck 8.90934 1.07325 5.22859
head 4.68033 0.846805 1.84928
rclavicle 6.01324e-015 4.37326e-015
rhumerus -39.191 -19.7091 -73.2942
rradius 25.0241
rwrist 13.3605
rhand -15.227 31.5573
rfingers 7.12502
rthumb 10.9458 1.86263
lclavicle 6.01324e-015 4.37326e-015
lhumerus -29.2681 25.8584 72.5602
lradius 13.1044
lwrist -16.521
lhand -12.4882 43.9709
lfingers 7.12502
lthumb 13.5865 73.5076
rfemur -12.8566 1.59036 16.9733
rtibia 25.6205
rfoot -17.4864 -11.7613
rtoes -12.2066
lfemur -12.9037 -2.4812 -21.0118
ltibia 26.6282
lfoot -25.827 8.45338
ltoes 30.7134
37
root 6.41048 30.1397 1.36204 22.5242 82.5654 14.1961
lowerback -2.07011 -1.62962 -6.48285
upperback 2.24546 -1.92069 0.124053
thorax 3.71219 -1.1226 3.65822
lowerneck -12.4774 1.09982 -0.865295
upperneck 8.9343 1.04921 5.25502
head 4.68618 0.837823 1.8525
rclavicle 1.76918e-014 1.98785e-015
rhumerus -39.303 -20.5357 -72.8088
rradius 24.5436
rwrist 14.2461
rhand -15.0441 31.6956
rfingers 7.12502
rthumb 11.1222 2.01038
lclavicle 1.76918e-014 1.98785e-015
lhumerus -29.5337 24.6154 72.9141
lradius 13.6735
lwrist -15.1728
lhand -12.3341 44.5225
lfingers 7.12502
lthumb 13.735 74.0492
rfemur -12.8045 1.62531 16.8828
rtibia 25.6157
rfoot -17.4911 -11.9924
rtoes -12.2176
lfemur -12.8953 -2.47525 -21.1077
ltibia 26.6109
lfoot -25.8172 8.32641
ltoes 30.6738
38
root 6.4111 30.1406 1.36574 23.9285 82.679 15.5457
lowerback -2.07498 -1.66285 -6.63116
upperback 2.31904 -1.95332 0.0795399
thorax 3.80011 -1.14589 3.6916
lowerneck -12.5002 1.11034 -0.802079
upperneck 8.95492 1.05151 5.25878
head 4.69671 0.842223 1.84405
rclavicle -1.59028e-014 1.31198e-014
rhumerus -39.3674 -21.491 -72.2196
rradius 23.9938
rwrist 15.3003
rhand -14.8506 31.8569
rfingers 7.12502
rthumb 11.3088 2.18182
lclavicle -1.59028e-014 1.31198e-014
lhumerus -29.5926 24.1864 73.0635
lradius 14.0557
lwrist -14.5558
lhand -12.2365 44.9392
lfingers 7.12502
lthumb 13.8291 74.4595
rfemur -12.8364 1.61144 16.7641
rtibia 25.6023
rfoot -17.4829 -12.18
rtoes -12.1534
lfemur -12.9993 -2.40998 -21.2304
ltibia 26.5985
lfoot -25.7368 8.24776
ltoes 30.2985
39
root 6.41412 30.1417 1.37069 23.7814 82.8055 15.3544
lowerback -2.13925 -1.67219 -6.60454
upperback 2.38683 -1.96062 0.120417
thorax 3.90876 -1.15434 3.71581
lowerneck -12.4726 1.11413 -0.74527
upperneck 8.95812 1.04635 5.26786
head 4.69372 0.842217 1.83703
rclavicle -2.88238e-015 1.07344e-014
rhumerus -39.5181 -22.1351 -71.6687
rradius 23.6658
rwrist 16.1497
rhand -14.7194 32.0321
rfingers 7.12502
rthumb 11.4354 2.36394
lclavicle -2.88238e-015 1.07344e-014
lhumerus -29.6923 23.9421 73.1411
lradius 14.3388
lwrist -14.1171
lhand -12.151 45.0899
lfingers 7.12502
lthumb 13.9114 74.6046
rfemur -12.8476 1.69293 16.8585
rtibia 25.6087
rfoot -17.4206 -12.3553
rtoes -12.1782
lfemur -13.0591 -2.37543 -21.143
ltibia 26.5749
lfoot -25.6522 8.2066
ltoes 30.1092
